<?xml version="1.0" encoding="UTF-8" standalone="no"?>
<!-- License: Apache. Made by topcoat: https://github.com/topcoat/icons -->

<svg
   fill="#ffffff"
   height="200"
   width="200"
   version="1.1"
   id="Layer_1"
   viewBox="0 0 10.5 10.5"
   enable-background="new 0 0 42 42"
   xml:space="preserve"
   sodipodi:docname="viewing.svg"
   inkscape:version="1.4.3 (0d15f75, 2025-12-25)"
   xmlns:inkscape="http://www.inkscape.org/namespaces/inkscape"
   xmlns:sodipodi="http://sodipodi.sourceforge.net/DTD/sodipodi-0.dtd"
   xmlns="http://www.w3.org/2000/svg"
   xmlns:svg="http://www.w3.org/2000/svg"><defs
   id="defs1" /><sodipodi:namedview
   id="namedview1"
   pagecolor="#ffffff"
   bordercolor="#000000"
   borderopacity="0.25"
   inkscape:showpageshadow="2"
   inkscape:pageopacity="0.0"
   inkscape:pagecheckerboard="0"
   inkscape:deskcolor="#d1d1d1"
   inkscape:zoom="1.12"
   inkscape:cx="400.89286"
   inkscape:cy="186.16071"
   inkscape:window-width="1920"
   inkscape:window-height="991"
   inkscape:window-x="-9"
   inkscape:window-y="-9"
   inkscape:window-maximized="1"
   inkscape:current-layer="Layer_1" />
<path
   d="m 4.0223077,5.1478399 c 0,0.6800693 0.56,1.250451 1.2276923,1.250451 0.6676923,0 1.2276923,-0.5703817 1.2276923,-1.250451 0,-0.6800702 -0.56,-1.2504511 -1.2276923,-1.2504511 -0.6676923,0 -1.2276923,0.5703809 -1.2276923,1.2504511 z M 5.7669231,7.8461815 C 7.21,7.5171155 9.45,5.5646571 9.45,5.5646571 c 0,0 -1.6584615,-2.6325288 -3.8769231,-2.9177194 C 5.4438462,2.625 5.0130769,2.625 4.9269231,2.625 2.7730769,2.8443775 1.05,5.6304699 1.05,5.6304699 c 0,0 1.8738462,1.8866456 3.6615385,2.1718361 0.1938461,0.087751 0.84,0.087751 1.0553846,0.043869 z M 3.1176923,5.2794664 c 0,-1.1407626 0.9476923,-2.0621476 2.1323077,-2.0621476 1.1846154,0 2.1323077,0.921385 2.1323077,2.0621476 0,1.1407624 -0.9476923,2.0402099 -2.1323077,2.0402099 -1.1846154,0 -2.1323077,-0.9213854 -2.1323077,-2.0402099 z"
   id="path1"
   style="fill:#e36e25;fill-opacity:1;stroke-width:0.217372" />
</svg>
